:SAMPLES-PER-SECOND 30
:FULLY-SPECIFIED
:DEGREES
45
root  35.00286012 36.53614615 -14.62461817 10.06176376 0.979914844 2.773195744
lowerback  -8.242600441 0.4501690567 0.964669466
upperback  -3.654289961 0.2212149948 -2.898989916
thorax  0.856810987 -0.06951259822 -3.521929979
lowerneck  -15.09869957 3.430999994 2.701469898
upperneck  12.78439999 3.297250032 3.893049955
head  6.350629807 2.007659912 1.126309991
lclavicle  0 -4.497500157e-015 -2.743230041e-014
lhumerus  -44.71870041 26.73520088 69.76319885
lradius  -0.4750097692 -6.507048965e-006 28.53409767
lwrist  4.824992743e-007 -3.790274832e-007 -29.37529945
lhand  -4.413496317e-031 -36.8628006 -10.70259953
lfingers  90 7.125020027 -90
lthumb  94.80449005 -25.53925537 101.0317809
rclavicle  0 -4.497500157e-015 -2.743230041e-014
rhumerus  -35.12630081 -5.513530254 -78.55120087
rradius  -5.16745672e-007 2.214343908e-008 72.77089691
rwrist  1.129822067e-006 0.001802438172 -168.0200043
rhand  -1.766219276e-031 -1.562540054 -7.768740177
rfingers  -90 -7.125020027 -90
rthumb  -86.41565794 -7.958748594 -65.6576747
rfemur  -12.55530357 14.86735916 13.67583179
rtibia  -0.5839859247 0.8584925532 20.19880867
rfoot  -0.2669679821 -18.78555489 -39.7375145
rtoes  4.072811509 19.59756121 -101.9852949
lfemur  -10.03047466 -17.0332489 -18.42868042
ltibia  2.139453173 1.401221991 15.14623165
lfoot  0.425825417 -28.23550987 33.48236465
ltoes  -8.689767829 -18.08358083 -116.2150106
46
root  35.00317851 36.53657267 -14.61922803 10.06459713 1.001771688 2.753211021
lowerback  -8.239739418 0.4453510642 0.8950827718
upperback  -3.670819998 0.2176990062 -2.888050079
thorax  0.8376129866 -0.07168740034 -3.471369982
lowerneck  -15.00930023 3.447770119 2.693989992
upperneck  12.64009953 3.326580048 3.924760103
head  6.288440228 2.021399975 1.136459947
lclavicle  0 -4.497500157e-015 -2.743230041e-014
lhumerus  -44.82920074 26.86120033 69.64969635
lradius  -0.4757142663 -6.507048965e-006 28.49749947
lwrist  4.824992743e-007 -3.790274832e-007 -29.48189926
lhand  -4.411822586e-031 -36.83380127 -10.68150043
lfingers  90 7.125020027 -90
lthumb  94.78643495 -25.51960645 100.9988485
rclavicle  0 -4.497500157e-015 -2.743230041e-014
rhumerus  -34.33729935 -4.827689648 -78.68859863
rradius  -5.16745672e-007 2.214343908e-008 74.00360107
rwrist  1.129822067e-006 0.001802438172 -168.4380035
rhand  -3.532520727e-031 -1.610659957 -7.88409996
rfingers  -90 -7.125020027 -90
rthumb  -86.47255464 -7.850887586 -65.71107238
rfemur  -12.50694847 14.85721302 13.68865681
rtibia  -0.5579962134 0.8406404853 20.11843491
rfoot  -0.2432708591 -18.82058144 -39.75317383
rtoes  4.060096623 19.60009991 -101.947389
lfemur  -10.01137352 -17.03780174 -18.41238403
ltibia  2.146387339 1.418631077 15.13428402
lfoot  0.4304113984 -28.26347733 33.48162842
ltoes  -8.686120437 -18.0852876 -116.2032606
47
root  35.00283309 36.53652461 -14.61315756 10.06103611 1.018823624 2.755311012
lowerback  -8.292910576 0.4733718932 0.9267308116
upperback  -3.653860092 0.2532820106 -2.924520016
thorax  0.8870850205 -0.05398299918 -3.524359941
lowerneck  -14.90100002 3.458770037 2.811949968
upperneck  12.44190025 3.334450006 3.886539936
head  6.209839821 2.023890018 1.100939989
lclavicle  0 -4.497500157e-015 -2.743230041e-014
lhumerus  -44.84980011 26.89380074 69.57029724
lradius  -0.4763998985 -6.507048965e-006 28.4904995
lwrist  4.824992743e-007 -3.790274832e-007 -29.62969971
lhand  -4.410698426e-031 -36.81430054 -10.71730042
lfingers  90 7.125020027 -90
lthumb  94.78479881 -25.5553448 100.9811672
rclavicle  0 -4.497500157e-015 -2.743230041e-014
rhumerus  -33.46490097 -4.228960514 -78.82589722
rradius  -5.16745672e-007 2.214343908e-008 75.1780014
rwrist  1.129822067e-006 0.001802438172 -168.5469971
rhand  -1.766349491e-031 -1.710389972 -7.957330227
rfingers  -90 -7.125020027 -90
rthumb  -86.52121851 -7.778498632 -65.81232449
rfemur  -12.47864532 14.87908363 13.68874168
rtibia  -0.5517522097 0.847180903 20.09229088
rfoot  -0.235012576 -18.80184555 -39.77604675
rtoes  4.056367035 19.60084299 -101.9362711
lfemur  -9.981207848 -17.02788925 -18.43179131
ltibia  2.169232845 1.418115258 15.1065731
lfoot  0.4212793708 -28.25299454 33.43828201
ltoes  -8.667488068 -18.09399242 -116.1432539
48
root  35.00148142 36.53620322 -14.60757218 10.04978275 1.027908087 2.759521484
lowerback  -8.360480309 0.5229310989 0.9629586935
upperback  -3.637959957 0.3177540004 -2.942290068
thorax  0.9454529881 -0.02128979936 -3.557849884
lowerneck  -14.89620018 3.445039988 2.848059893
upperneck  12.3448 3.320179939 3.846400023
head  6.179490089 2.014600039 1.079530001
lclavicle  0 -4.497500157e-015 -2.743230041e-014
lhumerus  -44.83060074 26.90880013 69.59010315
lradius  -0.4770402014 -6.507048965e-006 28.48159981
lwrist  4.824992743e-007 -3.790274832e-007 -29.71680069
lhand  -4.411978144e-031 -36.83649826 -10.7177
lfingers  90 7.125020027 -90
lthumb  94.79534592 -25.5550236 101.005019
rclavicle  0 -4.497500157e-015 -2.743230041e-014
rhumerus  -32.58480072 -3.469649315 -78.86669922
rradius  -5.16745672e-007 2.214343908e-008 76.45529938
rwrist  1.129822067e-006 0.001802438172 -169.022995
rhand  -1.766315781e-031 -1.673370004 -8.140789986
rfingers  -90 -7.125020027 -90
rthumb  -86.59039293 -7.61327723 -65.78646979
rfemur  -12.42287254 14.83770561 13.6847887
rtibia  -0.5390385985 0.8255323768 20.0331974
rfoot  -0.2127014399 -18.82601547 -39.76027679
rtoes  4.06279598 19.59956164 -101.955436
lfemur  -9.989983559 -16.99114037 -18.43798447
ltibia  2.161285877 1.406940341 15.13871574
lfoot  0.4086951315 -28.25259399 33.3651886
ltoes  -8.645678462 -18.10415184 -116.07305
